<svg width="285" height="163" viewBox="0 0 285 163" fill="none" xmlns="http://www.w3.org/2000/svg">
<path d="M112 54.5L84 101.698L28 101.698L0 54.5L28 7.30162L84 7.30162L112 54.5Z" fill="white"/>
<path d="M87.4388 43.3067V70.0372C87.4388 74.6586 83.5908 78.4035 78.8423 78.4035H33.813C31.5331 78.4035 29.3466 77.522 27.7344 75.953C26.1223 74.3841 25.2166 72.2561 25.2166 70.0372L25.2166 43.3067L55.3419 59.4336C55.956 59.7619 56.701 59.7619 57.3134 59.4336L87.4388 43.3051V43.3067ZM78.8423 30.5964C81.0864 30.5966 83.2414 31.4508 84.847 32.9765C86.4527 34.5023 87.3817 36.5785 87.4355 38.7619L56.3277 55.4147L25.2198 38.7603L25.2231 38.6169C25.3148 36.4596 26.2599 34.4203 27.8608 32.9256C29.4618 31.4308 31.5945 30.5962 33.813 30.5964L78.8423 30.5964Z" fill="#353535"/>
<path d="M197 107L169.25 155.497H113.75L86 107L113.75 58.5026L169.25 58.5026L197 107Z" fill="white"/>
<path fill-rule="evenodd" clip-rule="evenodd" d="M112.979 83.0957C112.979 81.8032 113.488 80.5636 114.394 79.6496C115.3 78.7357 116.528 78.2222 117.809 78.2222H165.957C166.591 78.2212 167.22 78.3465 167.807 78.591C168.394 78.8355 168.927 79.1943 169.376 79.647C169.825 80.0997 170.181 80.6373 170.424 81.2291C170.667 81.8209 170.792 82.4552 170.792 83.0957V131.677C170.792 132.317 170.668 132.952 170.425 133.544C170.183 134.136 169.827 134.674 169.378 135.127C168.929 135.58 168.396 135.94 167.81 136.185C167.223 136.43 166.594 136.556 165.959 136.556H117.809C117.175 136.556 116.546 136.429 115.96 136.184C115.374 135.939 114.842 135.58 114.393 135.127C113.944 134.674 113.589 134.137 113.346 133.545C113.104 132.954 112.979 132.32 112.979 131.679L112.979 83.0957ZM135.862 100.463H143.691V104.43C144.821 102.15 147.711 100.097 152.055 100.097C160.383 100.097 162.356 104.639 162.356 112.973V128.41H153.929V114.871C153.929 110.125 152.799 107.447 149.929 107.447C145.948 107.447 144.293 110.335 144.293 114.871V128.41H135.862V100.463ZM121.409 128.047H129.839V100.097H121.409V128.044V128.047ZM131.046 90.9813C131.062 91.7096 130.933 92.4338 130.668 93.1113C130.403 93.7889 130.006 94.4061 129.501 94.9269C128.996 95.4476 128.393 95.8614 127.728 96.1438C127.062 96.4263 126.348 96.5718 125.626 96.5718C124.904 96.5718 124.189 96.4263 123.524 96.1438C122.858 95.8614 122.255 95.4476 121.75 94.9269C121.246 94.4061 120.849 93.7889 120.584 93.1113C120.318 92.4338 120.19 91.7096 120.206 90.9813C120.237 89.5518 120.822 88.1914 121.835 87.1915C122.848 86.1916 124.209 85.6317 125.626 85.6317C127.043 85.6317 128.404 86.1916 129.417 87.1915C130.43 88.1914 131.014 89.5518 131.046 90.9813V90.9813Z" fill="#353535"/>
<path d="M285 57L257 104.631L201 104.631L173 57L201 9.3686L257 9.3686L285 57Z" fill="white"/>
<path fill-rule="evenodd" clip-rule="evenodd" d="M229 26.4445C211.811 26.4445 197.889 40.4639 197.889 57.7729C197.889 71.6357 206.794 83.3447 219.161 87.4957C220.717 87.7699 221.3 86.83 221.3 86.0076C221.3 85.2636 221.261 82.7965 221.261 80.1727C213.444 81.6217 211.422 78.2538 210.8 76.4916C210.45 75.5909 208.933 72.8105 207.611 72.0665C206.522 71.4791 204.967 70.0301 207.572 69.991C210.022 69.9518 211.772 72.2623 212.356 73.2021C215.156 77.9406 219.628 76.6091 221.417 75.7867C221.689 73.7504 222.506 72.3798 223.4 71.5966C216.478 70.8133 209.244 68.1113 209.244 56.1281C209.244 52.7212 210.45 49.9016 212.433 47.7086C212.122 46.9254 211.033 43.7143 212.744 39.4066C212.744 39.4066 215.35 38.5842 221.3 42.6178C223.789 41.9129 226.433 41.5604 229.078 41.5604C231.722 41.5604 234.367 41.9129 236.856 42.6178C242.806 38.5451 245.411 39.4066 245.411 39.4066C247.122 43.7143 246.033 46.9254 245.722 47.7086C247.706 49.9016 248.911 52.682 248.911 56.1281C248.911 68.1504 241.639 70.8133 234.717 71.5966C235.844 72.5756 236.817 74.4553 236.817 77.3923C236.817 81.5825 236.778 84.9503 236.778 86.0076C236.778 86.83 237.361 87.809 238.917 87.4957C245.093 85.396 250.459 81.3989 254.261 76.067C258.063 70.7352 260.109 64.3369 260.111 57.7729C260.111 40.4639 246.189 26.4445 229 26.4445Z" fill="#353535"/>
</svg>
