<svg width="353" height="716" viewBox="0 0 353 716" fill="none" xmlns="http://www.w3.org/2000/svg">
<path d="M121.5 474L226.722 534.5V655.5L121.5 716L16.2779 655.5V534.5L121.5 474Z" fill="white"/>
<path d="M189 569.441V628.788C189 639.048 180.651 647.363 170.349 647.363H72.6513C67.7047 647.363 62.9606 645.406 59.4628 641.922C55.965 638.439 54 633.714 54 628.788V569.441L119.361 605.246C120.694 605.975 122.31 605.975 123.639 605.246L189 569.438V569.441ZM170.349 541.222C175.218 541.223 179.893 543.119 183.377 546.507C186.861 549.894 188.876 554.504 188.993 559.351L121.5 596.323L54.0071 559.347L54.0142 559.029C54.2132 554.239 56.2638 549.712 59.7372 546.393C63.2106 543.075 67.8379 541.222 72.6513 541.222H170.349Z" fill="#353535"/>
<path d="M231.5 238L336.722 298.25V418.75L231.5 479L126.278 418.75V298.25L231.5 238Z" fill="white"/>
<path fill-rule="evenodd" clip-rule="evenodd" d="M169.063 305.389C169.063 302.608 170.177 299.941 172.159 297.974C174.142 296.008 176.832 294.903 179.636 294.903H285.04C286.43 294.901 287.806 295.17 289.091 295.696C290.375 296.222 291.542 296.994 292.526 297.969C293.509 298.943 294.289 300.099 294.821 301.373C295.352 302.646 295.626 304.011 295.625 305.389V409.925C295.627 411.304 295.354 412.669 294.823 413.943C294.292 415.217 293.513 416.375 292.53 417.35C291.547 418.325 290.381 419.099 289.096 419.626C287.812 420.153 286.436 420.424 285.046 420.424H179.636C178.247 420.424 176.872 420.152 175.589 419.625C174.305 419.097 173.139 418.324 172.157 417.35C171.176 416.376 170.397 415.219 169.866 413.946C169.335 412.673 169.062 411.309 169.063 409.931V305.389ZM219.158 342.76H236.296V351.296C238.77 346.389 245.098 341.973 254.607 341.973C272.838 341.973 277.158 351.747 277.158 369.679V402.896H258.709V373.764C258.709 363.551 256.235 357.789 249.953 357.789C241.238 357.789 237.613 364.002 237.613 373.764V402.896H219.158V342.76ZM187.518 402.115H205.973V341.973H187.518V402.109V402.115ZM208.613 322.358C208.648 323.925 208.367 325.483 207.786 326.941C207.206 328.399 206.337 329.727 205.232 330.848C204.127 331.968 202.807 332.858 201.35 333.466C199.893 334.074 198.329 334.387 196.748 334.387C195.168 334.387 193.603 334.074 192.146 333.466C190.689 332.858 189.369 331.968 188.264 330.848C187.159 329.727 186.29 328.399 185.71 326.941C185.129 325.483 184.848 323.925 184.883 322.358C184.951 319.282 186.231 316.354 188.449 314.203C190.667 312.051 193.646 310.846 196.748 310.846C199.85 310.846 202.829 312.051 205.047 314.203C207.265 316.354 208.545 319.282 208.613 322.358V322.358Z" fill="#353535"/>
<path d="M121.5 0L226.722 60.75V182.25L121.5 243L16.2779 182.25V60.75L121.5 0Z" fill="white"/>
<path fill-rule="evenodd" clip-rule="evenodd" d="M121.5 54C84.2062 54 54 84.9703 54 123.207C54 153.832 73.3219 179.698 100.153 188.868C103.528 189.473 104.794 187.397 104.794 185.58C104.794 183.937 104.709 178.487 104.709 172.691C87.75 175.891 83.3625 168.452 82.0125 164.559C81.2531 162.569 77.9625 156.427 75.0938 154.783C72.7313 153.486 69.3562 150.285 75.0094 150.198C80.325 150.112 84.1219 155.216 85.3875 157.292C91.4625 167.76 101.166 164.818 105.047 163.002C105.637 158.503 107.409 155.475 109.35 153.745C94.3313 152.015 78.6375 146.046 78.6375 119.574C78.6375 112.048 81.2531 105.819 85.5563 100.974C84.8813 99.2443 82.5187 92.1505 86.2313 82.6345C86.2313 82.6345 91.8844 80.8178 104.794 89.7283C110.194 88.1711 115.931 87.3925 121.669 87.3925C127.406 87.3925 133.144 88.1711 138.544 89.7283C151.453 80.7313 157.106 82.6345 157.106 82.6345C160.819 92.1505 158.456 99.2443 157.781 100.974C162.084 105.819 164.7 111.961 164.7 119.574C164.7 146.132 148.922 152.015 133.903 153.745C136.35 155.908 138.459 160.06 138.459 166.548C138.459 175.805 138.375 183.245 138.375 185.58C138.375 187.397 139.641 189.56 143.016 188.868C156.415 184.229 168.059 175.399 176.308 163.621C184.557 151.842 188.996 137.708 189 123.207C189 84.9703 158.794 54 121.5 54Z" fill="#353535"/>
</svg>
