<svg xmlns="http://www.w3.org/2000/svg" viewBox="0 0 758.15204 858.35229"><defs><style>.cls-1{opacity:0.15;}.cls-2{fill:#ccc;}</style></defs><g id="Camada_2" data-name="Camada 2"><g id="Camada_1-2" data-name="Camada 1"><g class="cls-1"><path class="cls-2" d="M36.91762,739.37259c3.24933-5.89214,6.00256-11.33858,9.17044-16.532,6.05337-9.92355,13.80052-19.09306,18.2262-29.67091,8.751-20.91595,3.05967-40.55133-15.43011-53.755-9.11565-6.50965-19.85075-11.09958-30.385-15.18722C5.07946,619.02-1.486,609.6556.28357,595.25933c.8703-7.0801,1.68583-14.16761,2.63168-21.23767C4.62011,561.27734,13.547,553.45408,26.3037,551.93229c10.41087-1.242,21.101-2.51034,30.91405-5.92916,24.35442-8.485,35.49091-27.53674,31.22855-52.97466a90.75239,90.75239,0,0,0-8.72243-25.65665c-8.889-17.4871-5.86267-31.14512,10.52442-41.90562a58.54007,58.54007,0,0,0,7.447-5.68984c13.30567-12.19875,26.32475-12.33342,40.10708-.03691a83.00082,83.00082,0,0,0,33.093,18.60981c25.06508,7.15662,45.05542-8.83838,54.10542-25.61807a150.04568,150.04568,0,0,0,9.28963-21.99966c4.65026-13.37708,13.89515-19.75174,28.05084-18.34434,7.09567.70532,14.17482,1.62864,21.23317,2.64877,14.28921,2.065,20.72,10.04891,22.72819,24.51241,1.62854,11.72962,3.96522,23.70494,8.33443,34.633,7.44938,18.63218,24.46515,28.65621,44.403,26.38843a112.96475,112.96475,0,0,0,31.7416-8.61265c18.46311-8.01418,26.51337-7.33416,40.00671,7.60694a132.26924,132.26924,0,0,1,13.71353,18.51152c5.49474,8.779,3.66159,20.68866-3.95445,29.26628-9.98084,11.24083-18.26007,23.38793-21.34839,38.43442-3.24755,15.82281.27864,30.31214,12.78917,40.28556A138.69094,138.69094,0,0,0,465.7053,605.42c16.15037,6.60448,22.06448,14.23589,20.12929,31.8013-.68755,6.24042-1.37029,12.48638-2.29183,18.69481-2.05616,13.85259-10.771,21.25628-24.72423,22.76729-9.85267,1.06687-19.94862,2.39732-29.24506,5.60986-25.81442,8.92056-37.40038,30.12508-31.23555,56.79936,2.0938,9.0593,5.92048,17.8385,9.868,26.32119,6.24282,13.41534,4.25786,24.32348-7.18883,33.432-5.58225,4.44188-11.18771,8.862-16.92084,13.10513-10.91,8.07451-22.15962,7.21183-32.92462-1.14037-8.284-6.42736-16.84232-12.93481-26.22721-17.42374-23.10145-11.0496-44.90862-5.1609-59.27039,16.06067-5.82617,8.60909-9.89354,18.59276-13.6416,28.37986-5.22917,13.65467-14.38142,19.9574-28.97363,18.2516-6.80041-.79492-13.59988-1.62592-20.37311-2.62127-14.0021-2.05794-21.18047-10.4274-22.97859-24.45752-1.36663-10.66285-2.87922-21.64533-6.67161-31.59156-9.00326-23.613-27.44515-33.99485-52.29663-29.53864-10.21661,1.83189-20.19819,5.978-29.75161,10.26387-13.68457,6.13952-24.88442,4.071-34.05141-7.7069-4.382-5.63024-9.22826-10.96836-13.00371-16.97928C41.01886,750.80946,39.44689,745.32884,36.91762,739.37259ZM322.5373,615.218c-.21444-44.1114-35.73284-79.67633-79.4415-79.54522a79.50338,79.50338,0,0,0,.06859,159.0067C287.15607,694.659,322.75028,659.025,322.5373,615.218Z"/><path class="cls-2" d="M510.07526,208.0417c-.36521-18.34941,2.37286-21.91121,20.47317-26.60694,3.0375-.788,6.06884-1.6059,9.1259-2.31049,10.72935-2.47308,18.03978,1.23724,23.32677,10.88393,3.67779,6.71044,7.433,13.6152,12.42312,19.32328,12.81782,14.66194,29.70635,17.18055,46.146,6.80982,6.64735-4.1933,12.398-9.9706,18.04773-15.54318,7.67051-7.56569,15.30317-9.07138,24.70468-3.987.50154.27126.98072.58341,1.47651.86571,24.33686,13.85578,24.33686,13.85557,17.711,40.7298-8.09615,32.83753,9.34746,53.725,44.14183,52.857,19.63485-.48983,22.86421,1.96656,27.68312,21.047.55852,2.21195,1.16724,4.41146,1.70088,6.62915,3.14635,13.07617-.22343,19.54776-11.84567,25.79006-6.95818,3.73729-13.92693,8.0374-19.62168,13.4258-12.79826,12.11051-15.13986,26.771-6.37832,41.98508,4.32268,7.50605,10.6044,14.03358,16.69071,20.33662,7.718,7.99275,9.2453,15.71094,3.77085,25.40614-.14031.24832-.2962.48775-.43923.7347-14.12349,24.39395-14.12349,24.39395-41.47225,17.82157-31.04516-7.46067-51.11726,7.83519-52.18768,39.76958-.91,27.14948-.91,27.14948-27.73132,33.79368-12.96315,3.21128-19.72853.05584-25.62-11.94928-18.13021-36.94411-47.46727-41.14049-74.93177-10.71837-8.99762,9.96652-16.32686,11.1277-27.90268,4.41323-2.468-1.43156-4.93464-2.86573-7.38707-4.32363-15.13525-8.99814-16.82851-13.71531-11.4447-30.864a84.76734,84.76734,0,0,0,2.7229-11.64681c4.574-27.89651-12.23158-46.73978-40.678-45.839a94.73446,94.73446,0,0,1-14.51515-.34732c-9.09767-1.11988-15.49179-7.65515-17.09722-16.54675-.70678-3.91461-1.59905-7.80141-2.554-11.66448-3.0624-12.38757.41612-19.197,11.48056-25.2287,7.18685-3.91775,14.41875-8.32053,20.33652-13.8826,12.95071-12.1723,15.08455-27.567,5.85786-42.72742-4.37309-7.18569-10.48877-13.42862-16.40183-19.53019-7.48054-7.71923-9.01707-15.20949-3.99031-24.7394.26619-.50457.5372-1.00685.817-1.5039,13.63313-24.22,13.95579-24.36018,40.76159-17.72308C490.52593,261.21444,510.7902,243.967,510.07526,208.0417Zm7.97968,150.7937c-.01851,31.98479,26.64531,59.79264,57.265,59.72207,35.00567-.08061,62.23555-25.90528,62.457-59.2338.22186-33.40254-26.90639-60.74283-60.13976-60.60994A59.83655,59.83655,0,0,0,518.05494,358.8354Z"/><path class="cls-2" d="M259.87172,29.38316c-.1287-1.20546-.52465-4.31746-.782-7.44091-.69559-8.4451,2.53837-14.38425,10.93564-17.03678,4.08043-1.289,8.09207-2.80012,12.18882-4.03151,7.86341-2.36355,13.90309.10294,18.39306,6.96184,2.9593,4.52051,5.81666,9.21384,9.433,13.17927,13.00622,14.26165,28.39032,15.18623,43.04369,2.72222a82.38329,82.38329,0,0,0,9.42483-9.898c6.899-8.20812,12.15839-9.58458,21.66623-5.18724,3.62333,1.67574,7.22417,3.41547,10.74346,5.29765,7.27384,3.89031,9.64973,9.96558,8.009,17.95457-1.144,5.57137-2.53136,11.19215-2.76086,16.83348-.71034,17.4618,8.792,28.71946,26.10738,31.312a57.35188,57.35188,0,0,0,11.94824.39312c17.94087-1.10968,29.92236,11.18531,27.668,29.18227-.42188,3.36863-2.94174,6.58414-4.90976,9.59849-.85525,1.31012-2.73879,1.97367-4.19764,2.86134-29.13652,17.7272-30.75659,39.70235-4.4998,61.14614,8.50924,6.94946,9.68349,12.35015,4.81116,22.40251-1.49366,3.08163-3.00666,6.15881-4.64889,9.16255-4.48412,8.202-9.94655,10.35452-19.20367,8.50877-6.39014-1.2742-12.96639-2.70555-19.39867-2.462-15.67852.59335-25.4626,9.70995-27.45027,25.27268-.78437,6.1413-.25376,12.49746.12515,18.72868.49924,8.21179-2.88172,13.76894-10.47047,16.702-3.98812,1.54134-8.06364,2.8834-12.16227,4.10563-8.84632,2.638-14.82118.2846-19.60662-7.56595-.74181-1.21712-1.35858-2.51066-2.10436-3.72516-15.23354-24.804-37.40979-26.67951-56.69658-4.80291-11.75482,13.33317-29.5123,13.10179-40.22011-1.2743-2.502-3.35912-2.73147-8.96573-2.67982-13.52335.05708-5.05112,2.16688-10.05466,2.45691-15.13192,1.13264-19.827-8.76257-31.17214-28.5897-33.24236a49.38416,49.38416,0,0,0-6.8391-.236c-21.59911.75854-26.78751-3.47084-30.11452-24.92624-1.07628-6.941,1.46626-12.61848,7.64479-15.85088,31.1241-16.28269,32.374-42.95414,4.61376-62.95776-6.62664-4.77509-7.93482-11.59469-4.61554-19.06456,1.85218-4.16794,3.87352-8.27828,6.09289-12.26169,4.14735-7.44368,10.362-10.19346,18.72377-7.8263a71.09988,71.09988,0,0,0,9.179,2.06207C245.85446,68.885,260.11074,56.34182,259.87172,29.38316Zm62.86915,65.55833a48.80848,48.80848,0,0,0-48.478,48.54549c.03064,26.51457,22.2532,48.43294,48.78424,48.11614a48.3498,48.3498,0,0,0,47.97509-48.86229C370.67017,116.48571,348.82379,94.85748,322.74087,94.94149Z"/></g></g></g></svg>