<svg xmlns="http://www.w3.org/2000/svg" viewBox="0 0 486.18807 486.15658"><defs><style>.cls-1{opacity:0.15;}.cls-2{fill:#ccc;}</style></defs><g id="Camada_2" data-name="Camada 2"><g id="Camada_1-2" data-name="Camada 1"><g class="cls-1"><path class="cls-2" d="M36.91762,367.17688c3.24933-5.89214,6.00256-11.33858,9.17044-16.532,6.05337-9.92355,13.80052-19.09306,18.2262-29.67091,8.751-20.916,3.05967-40.55133-15.43011-53.755-9.11565-6.50965-19.85075-11.09958-30.385-15.18722C5.07946,246.82428-1.486,237.45989.28357,223.06362c.8703-7.0801,1.68583-14.16761,2.63168-21.23767C4.62011,189.08163,13.547,181.25837,26.3037,179.73658c10.41087-1.242,21.101-2.51034,30.91405-5.92916,24.35442-8.485,35.49091-27.53674,31.22855-52.97466a90.75239,90.75239,0,0,0-8.72243-25.65665C70.83488,77.689,73.8612,64.031,90.24829,53.27049a58.54007,58.54007,0,0,0,7.447-5.68984c13.30567-12.19875,26.32475-12.33342,40.10708-.03691a83.00082,83.00082,0,0,0,33.093,18.60981c25.06508,7.15662,45.05542-8.83838,54.10542-25.61807a150.04568,150.04568,0,0,0,9.28963-21.99966C238.94061,5.15874,248.1855-1.21592,262.34119.19148c7.09567.70532,14.17482,1.62864,21.23317,2.64877,14.28921,2.06505,20.72,10.04891,22.72819,24.51241,1.62854,11.72962,3.96522,23.70494,8.33443,34.633,7.44938,18.63218,24.46515,28.65621,44.403,26.38843a112.96475,112.96475,0,0,0,31.7416-8.61265c18.46311-8.01418,26.51337-7.33416,40.00671,7.60694a132.26924,132.26924,0,0,1,13.71353,18.51152c5.49474,8.779,3.66159,20.68866-3.95445,29.26628-9.98084,11.24083-18.26007,23.38793-21.34839,38.43442-3.24755,15.82281.27864,30.31214,12.78917,40.28556a138.69094,138.69094,0,0,0,33.71715,19.35809c16.15037,6.60448,22.06448,14.23589,20.12929,31.8013-.68755,6.24042-1.37029,12.48638-2.29183,18.69481-2.05616,13.85259-10.771,21.25628-24.72423,22.76729-9.85267,1.06687-19.94862,2.39732-29.24506,5.60986-25.81442,8.92056-37.40038,30.12508-31.23555,56.79936,2.0938,9.0593,5.92048,17.8385,9.868,26.32119,6.24282,13.41534,4.25786,24.32348-7.18883,33.432-5.58225,4.44188-11.18771,8.862-16.92084,13.10513-10.91,8.07451-22.15962,7.21183-32.92462-1.14037-8.284-6.42736-16.84232-12.93481-26.22721-17.42374-23.10145-11.0496-44.90862-5.1609-59.27039,16.06067-5.82617,8.60909-9.89354,18.59276-13.6416,28.37986-5.22917,13.65467-14.38142,19.9574-28.97363,18.2516-6.80041-.79492-13.59988-1.62592-20.37311-2.62127-14.0021-2.05794-21.18047-10.4274-22.97859-24.45752-1.36663-10.66285-2.87922-21.64533-6.67161-31.59156-9.00326-23.613-27.44515-33.99485-52.29663-29.53864-10.21661,1.83189-20.19819,5.978-29.75161,10.26387-13.68457,6.13952-24.88442,4.071-34.05141-7.7069-4.382-5.63024-9.22826-10.96836-13.00371-16.97928C41.01886,378.61375,39.44689,373.13313,36.91762,367.17688ZM322.5373,243.02227c-.21444-44.1114-35.73284-79.67633-79.4415-79.54522a79.50338,79.50338,0,0,0,.06859,159.0067C287.15607,322.46325,322.75028,286.82932,322.5373,243.02227Z"/></g></g></g></svg>