<svg width="215" height="101" viewBox="0 0 215 101" fill="none" xmlns="http://www.w3.org/2000/svg">
<path d="M68 34L51 63.4449L17 63.4449L0 34L17 4.55514L51 4.55514L68 34Z" fill="white"/>
<path d="M53.0878 27.0171V43.693C53.0878 46.576 50.7516 48.9123 47.8685 48.9123H20.5294C19.1451 48.9123 17.8176 48.3624 16.8388 47.3836C15.8599 46.4048 15.3101 45.0772 15.3101 43.693L15.3101 27.0171L33.6005 37.0779C33.9733 37.2827 34.4256 37.2827 34.7974 37.0779L53.0878 27.0161V27.0171ZM47.8685 19.0877C49.231 19.0878 50.5394 19.6207 51.5143 20.5725C52.4891 21.5244 53.0532 22.8197 53.0859 24.1817L34.199 34.5706L15.312 24.1807L15.314 24.0913C15.3697 22.7454 15.9435 21.4733 16.9155 20.5407C17.8875 19.6082 19.1824 19.0876 20.5294 19.0877L47.8685 19.0877Z" fill="#353535"/>
<path d="M142 66.5L124.5 96.3779L89.5 96.3779L72 66.5L89.5 36.6221L124.5 36.6221L142 66.5Z" fill="white"/>
<path fill-rule="evenodd" clip-rule="evenodd" d="M89.0137 51.7733C89.0137 50.977 89.3346 50.2133 89.9058 49.6502C90.477 49.0872 91.2518 48.7708 92.0596 48.7708L122.423 48.7708C122.823 48.7702 123.22 48.8474 123.59 48.998C123.96 49.1486 124.296 49.3697 124.579 49.6486C124.862 49.9275 125.087 50.2587 125.24 50.6233C125.393 50.9879 125.472 51.3786 125.472 51.7733V81.7027C125.472 82.0974 125.394 82.4883 125.241 82.853C125.088 83.2178 124.864 83.5492 124.58 83.8284C124.297 84.1076 123.961 84.329 123.591 84.48C123.221 84.631 122.825 84.7086 122.424 84.7084H92.0596C91.6595 84.7084 91.2632 84.6306 90.8936 84.4797C90.5239 84.3287 90.1881 84.1074 89.9052 83.8284C89.6224 83.5494 89.398 83.2182 89.2451 82.8538C89.0921 82.4893 89.0135 82.0987 89.0137 81.7043V51.7733ZM103.445 62.4728H108.381V64.9166C109.094 63.5118 110.917 62.2474 113.656 62.2474C118.908 62.2474 120.152 65.0456 120.152 70.1798V79.6902H114.838V71.3494C114.838 68.4254 114.125 66.7755 112.316 66.7755C109.805 66.7755 108.761 68.5544 108.761 71.3494V79.6902H103.445V62.4728ZM94.33 79.4664H99.6462V62.2474H94.33V79.4647V79.4664ZM100.407 56.6314C100.417 57.08 100.336 57.5262 100.169 57.9436C100.001 58.361 99.7512 58.7413 99.4329 59.0621C99.1145 59.3829 98.7343 59.6378 98.3146 59.8118C97.8949 59.9859 97.4442 60.0755 96.9889 60.0755C96.5336 60.0755 96.0829 59.9859 95.6632 59.8118C95.2436 59.6378 94.8634 59.3829 94.545 59.0621C94.2266 58.7413 93.9765 58.361 93.8092 57.9436C93.6419 57.5262 93.5609 57.08 93.571 56.6314C93.5906 55.7507 93.9594 54.9126 94.5982 54.2965C95.2371 53.6805 96.0952 53.3356 96.9889 53.3356C97.8826 53.3356 98.7408 53.6805 99.3796 54.2965C100.018 54.9126 100.387 55.7507 100.407 56.6314V56.6314Z" fill="#353535"/>
<path d="M215 35L198 64.4449H164L147 35L164 5.55514L198 5.55514L215 35Z" fill="white"/>
<path fill-rule="evenodd" clip-rule="evenodd" d="M181 16.1111C170.564 16.1111 162.111 24.7777 162.111 35.4778C162.111 44.0475 167.518 51.2858 175.027 53.8519C175.971 54.0214 176.325 53.4404 176.325 52.932C176.325 52.472 176.302 50.9469 176.302 49.3249C171.556 50.2207 170.328 48.1387 169.95 47.0494C169.738 46.4926 168.817 44.7738 168.014 44.3138C167.353 43.9507 166.409 43.055 167.99 43.0308C169.478 43.0066 170.54 44.4349 170.895 45.0159C172.595 47.9451 175.31 47.122 176.396 46.6136C176.561 45.3548 177.057 44.5075 177.6 44.0233C173.397 43.5392 169.006 41.8688 169.006 34.461C169.006 32.3549 169.738 30.6119 170.942 29.2562C170.753 28.7721 170.092 26.787 171.131 24.1241C171.131 24.1241 172.713 23.6157 176.325 26.1092C177.836 25.6734 179.442 25.4555 181.047 25.4555C182.653 25.4555 184.259 25.6734 185.77 26.1092C189.382 23.5915 190.964 24.1241 190.964 24.1241C192.003 26.787 191.342 28.7721 191.153 29.2562C192.357 30.6119 193.089 32.3307 193.089 34.461C193.089 41.893 188.674 43.5392 184.471 44.0233C185.156 44.6285 185.746 45.7905 185.746 47.6062C185.746 50.1964 185.722 52.2784 185.722 52.932C185.722 53.4404 186.077 54.0456 187.021 53.8519C190.771 52.5539 194.029 50.083 196.337 46.7869C198.646 43.4908 199.888 39.5356 199.889 35.4778C199.889 24.7777 191.436 16.1111 181 16.1111Z" fill="#353535"/>
</svg>
