<svg width="320" height="83" viewBox="0 0 320 83" fill="none" xmlns="http://www.w3.org/2000/svg">
<path d="M143 28L129 52.2487L101 52.2487L87 28L101 3.75129L129 3.75129L143 28Z" fill="white"/>
<path d="M130.72 22.2494V35.9825C130.72 38.3567 128.796 40.2807 126.421 40.2807H103.907C102.767 40.2807 101.673 39.8279 100.867 39.0218C100.061 38.2157 99.6084 37.1224 99.6084 35.9825V22.2494L114.671 30.5347C114.978 30.7034 115.351 30.7034 115.657 30.5347L130.72 22.2485V22.2494ZM126.421 15.7193C127.543 15.7194 128.621 16.1583 129.424 16.9421C130.226 17.726 130.691 18.7927 130.718 19.9144L115.164 28.4699L99.61 19.9136L99.6117 19.8399C99.6575 18.7316 100.13 17.6839 100.931 16.9159C101.731 16.148 102.797 15.7192 103.907 15.7193L126.421 15.7193Z" fill="#353535"/>
<path d="M187 54.5L172.75 79.1817H144.25L130 54.5L144.25 29.8183L172.75 29.8183L187 54.5Z" fill="white"/>
<path fill-rule="evenodd" clip-rule="evenodd" d="M143.854 42.3344C143.854 41.6766 144.115 41.0457 144.58 40.5806C145.046 40.1155 145.676 39.8542 146.334 39.8542H171.059C171.385 39.8536 171.707 39.9174 172.009 40.0418C172.31 40.1662 172.584 40.3489 172.814 40.5793C173.045 40.8096 173.228 41.0833 173.353 41.3844C173.478 41.6856 173.542 42.0084 173.542 42.3344V67.0587C173.542 67.3848 173.478 67.7077 173.353 68.009C173.229 68.3103 173.046 68.5841 172.816 68.8147C172.585 69.0454 172.311 69.2283 172.01 69.353C171.709 69.4777 171.386 69.5418 171.06 69.5417H146.334C146.008 69.5417 145.686 69.4775 145.385 69.3527C145.084 69.228 144.81 69.0452 144.58 68.8147C144.35 68.5843 144.167 68.3107 144.042 68.0096C143.918 67.7086 143.854 67.3859 143.854 67.0601V42.3344ZM155.605 51.1732H159.625V53.1919C160.205 52.0314 161.689 50.987 163.92 50.987C168.196 50.987 169.21 53.2986 169.21 57.5398V65.3962H164.882V58.506C164.882 56.0905 164.302 54.7276 162.828 54.7276C160.784 54.7276 159.934 56.1971 159.934 58.506V65.3962H155.605V51.1732ZM148.183 65.2113H152.512V50.987H148.183V65.21V65.2113ZM153.131 46.3476C153.14 46.7183 153.074 47.0868 152.937 47.4316C152.801 47.7765 152.597 48.0906 152.338 48.3556C152.079 48.6206 151.769 48.8312 151.428 48.975C151.086 49.1187 150.719 49.1928 150.348 49.1928C149.977 49.1928 149.61 49.1187 149.269 48.975C148.927 48.8312 148.617 48.6206 148.358 48.3556C148.099 48.0906 147.895 47.7765 147.759 47.4316C147.623 47.0868 147.557 46.7183 147.565 46.3476C147.581 45.6201 147.881 44.9277 148.401 44.4189C148.922 43.91 149.62 43.625 150.348 43.625C151.076 43.625 151.775 43.91 152.295 44.4189C152.815 44.9277 153.115 45.6201 153.131 46.3476V46.3476Z" fill="#353535"/>
<path d="M231 29L217 53.2487L189 53.2487L175 29L189 4.75129L217 4.75129L231 29Z" fill="white"/>
<path fill-rule="evenodd" clip-rule="evenodd" d="M203 13.4445C194.405 13.4445 187.444 20.5816 187.444 29.3935C187.444 36.4509 191.897 42.4119 198.08 44.5251C198.858 44.6647 199.15 44.1862 199.15 43.7675C199.15 43.3887 199.13 42.1328 199.13 40.797C195.222 41.5347 194.211 39.8201 193.9 38.923C193.725 38.4645 192.967 37.049 192.305 36.6702C191.761 36.3712 190.983 35.6335 192.286 35.6136C193.511 35.5937 194.386 36.7699 194.678 37.2484C196.078 39.6607 198.314 38.9828 199.208 38.5642C199.344 37.5275 199.753 36.8297 200.2 36.431C196.739 36.0323 193.122 34.6567 193.122 28.5562C193.122 26.8217 193.725 25.3863 194.717 24.2699C194.561 23.8711 194.017 22.2364 194.872 20.0434C194.872 20.0434 196.175 19.6247 199.15 21.6781C200.394 21.3193 201.717 21.1399 203.039 21.1399C204.361 21.1399 205.683 21.3193 206.928 21.6781C209.903 19.6048 211.205 20.0434 211.205 20.0434C212.061 22.2364 211.517 23.8711 211.361 24.2699C212.353 25.3863 212.955 26.8018 212.955 28.5562C212.955 34.6766 209.319 36.0323 205.858 36.431C206.422 36.9294 206.908 37.8863 206.908 39.3816C206.908 41.5147 206.889 43.2293 206.889 43.7675C206.889 44.1862 207.18 44.6846 207.958 44.5251C211.046 43.4562 213.73 41.4213 215.631 38.7069C217.532 35.9925 218.555 32.7352 218.555 29.3935C218.555 20.5816 211.594 13.4445 203 13.4445Z" fill="#353535"/>
<path d="M100 53.5L85.75 78.1817H57.25L43 53.5L57.25 28.8183L85.75 28.8183L100 53.5Z" fill="white"/>
<path d="M56 28L42 52.2487L14 52.2487L0 28L14 3.75129L42 3.75129L56 28Z" fill="white"/>
<path d="M276 53.5L261.75 78.1817H233.25L219 53.5L233.25 28.8183L261.75 28.8183L276 53.5Z" fill="white"/>
<path d="M320 29L306 53.2487L278 53.2487L264 29L278 4.75129L306 4.75129L320 29Z" fill="white"/>
</svg>
